<svg id="svg" version="1.1" xmlns="http://www.w3.org/2000/svg" xmlns:xlink="http://www.w3.org/1999/xlink" width="32" height="32" viewBox="0, 0, 400,400"><g id="svgg"><path id="path0" d="M310.117 56.297 C 311.611 56.374,313.951 56.374,315.317 56.296 C 316.682 56.218,315.460 56.155,312.600 56.155 C 309.740 56.156,308.622 56.220,310.117 56.297 M322.500 57.076 C 322.885 57.176,323.515 57.176,323.900 57.076 C 324.285 56.975,323.970 56.893,323.200 56.893 C 322.430 56.893,322.115 56.975,322.500 57.076 M315.200 69.200 C 316.568 69.638,317.619 69.638,316.600 69.200 C 316.160 69.011,315.440 68.862,315.000 68.868 C 314.357 68.877,314.396 68.943,315.200 69.200 M266.975 73.300 L 265.800 74.600 267.100 73.425 C 267.815 72.779,268.400 72.194,268.400 72.125 C 268.400 71.816,268.070 72.088,266.975 73.300 M361.000 76.400 C 362.528 77.940,363.869 79.200,363.979 79.200 C 364.089 79.200,362.928 77.940,361.400 76.400 C 359.872 74.860,358.531 73.600,358.421 73.600 C 358.311 73.600,359.472 74.860,361.000 76.400 M261.381 78.900 L 259.800 80.600 261.500 79.019 C 262.435 78.149,263.200 77.384,263.200 77.319 C 263.200 77.016,262.852 77.319,261.381 78.900 M309.375 82.182 C 307.675 83.201,306.142 85.464,306.495 86.434 C 306.623 86.783,306.820 86.554,307.011 85.834 C 308.376 80.687,315.717 80.494,317.835 85.549 C 318.710 87.638,318.660 118.534,317.778 120.739 C 316.758 123.287,312.726 125.686,311.508 124.468 C 311.251 124.211,310.750 124.000,310.396 124.000 C 309.401 124.000,307.335 121.752,306.998 120.302 C 306.803 119.462,306.634 119.239,306.524 119.673 C 306.429 120.043,306.615 120.853,306.938 121.473 C 309.362 126.134,315.653 126.200,318.005 121.590 C 318.994 119.651,319.259 86.811,318.300 85.095 C 316.208 81.352,312.680 80.201,309.375 82.182 M330.468 83.200 C 330.488 84.239,331.118 85.946,331.132 85.000 C 331.138 84.560,330.989 83.840,330.800 83.400 C 330.589 82.910,330.461 82.832,330.468 83.200 M293.784 103.200 C 293.784 112.990,293.836 116.995,293.900 112.100 C 293.963 107.205,293.963 99.195,293.900 94.300 C 293.836 89.405,293.784 93.410,293.784 103.200 M33.400 119.200 L 32.600 119.544 33.400 119.532 C 33.840 119.526,34.650 119.376,35.200 119.200 L 36.200 118.880 35.200 118.868 C 34.650 118.862,33.840 119.011,33.400 119.200 M231.115 120.000 C 231.212 120.660,231.360 121.200,231.445 121.200 C 231.530 121.200,231.600 120.660,231.600 120.000 C 231.600 119.340,231.451 118.800,231.269 118.800 C 231.087 118.800,231.018 119.340,231.115 120.000 M243.737 121.800 C 243.739 123.560,243.809 124.230,243.893 123.289 C 243.978 122.349,243.977 120.909,243.891 120.089 C 243.805 119.270,243.736 120.040,243.737 121.800 M28.265 121.047 C 27.640 121.386,27.215 121.748,27.320 121.853 C 27.424 121.957,28.115 121.674,28.855 121.223 C 30.413 120.273,29.948 120.135,28.265 121.047 M24.190 124.410 C 22.889 125.725,21.927 126.800,22.052 126.800 C 22.364 126.800,26.836 122.303,26.680 122.147 C 26.611 122.078,25.490 123.096,24.190 124.410 M243.728 129.200 C 243.728 130.630,243.801 131.215,243.889 130.500 C 243.978 129.785,243.978 128.615,243.889 127.900 C 243.801 127.185,243.728 127.770,243.728 129.200 M21.029 128.343 C 20.125 130.093,20.256 130.441,21.223 128.855 C 21.674 128.115,21.957 127.423,21.851 127.318 C 21.745 127.212,21.376 127.673,21.029 128.343 M231.115 130.000 C 231.018 130.660,231.087 131.200,231.269 131.200 C 231.451 131.200,231.600 130.660,231.600 130.000 C 231.600 129.340,231.530 128.800,231.445 128.800 C 231.360 128.800,231.212 129.340,231.115 130.000 M325.381 132.100 L 323.800 133.800 325.500 132.219 C 327.081 130.748,327.384 130.400,327.081 130.400 C 327.016 130.400,326.251 131.165,325.381 132.100 M34.096 131.998 C 32.754 132.816,31.204 134.951,31.201 135.985 C 31.201 136.306,31.605 135.766,32.100 134.785 C 32.757 133.481,33.481 132.757,34.785 132.100 C 35.766 131.605,36.306 131.201,35.985 131.201 C 35.663 131.202,34.813 131.561,34.096 131.998 M19.076 133.610 C 18.930 134.155,18.827 135.050,18.846 135.600 C 18.871 136.318,18.984 136.157,19.249 135.027 C 19.655 133.295,19.500 132.025,19.076 133.610 M311.100 137.489 C 311.815 137.578,312.985 137.578,313.700 137.489 C 314.415 137.401,313.830 137.328,312.400 137.328 C 310.970 137.328,310.385 137.401,311.100 137.489 M311.900 143.882 C 312.395 143.978,313.205 143.978,313.700 143.882 C 314.195 143.787,313.790 143.709,312.800 143.709 C 311.810 143.709,311.405 143.787,311.900 143.882 M299.200 149.400 C 298.228 150.390,297.523 151.200,297.633 151.200 C 297.743 151.200,298.628 150.390,299.600 149.400 C 300.572 148.410,301.277 147.600,301.167 147.600 C 301.057 147.600,300.172 148.410,299.200 149.400 M309.181 157.301 C 307.620 158.353,306.265 160.474,306.505 161.490 C 306.625 162.003,306.760 161.866,306.987 161.000 C 307.356 159.591,309.485 157.203,310.378 157.194 C 310.720 157.191,311.270 157.013,311.600 156.800 C 312.092 156.482,312.049 156.411,311.359 156.406 C 310.897 156.403,309.916 156.806,309.181 157.301 M313.600 156.800 C 313.930 157.013,314.424 157.191,314.697 157.194 C 316.714 157.219,318.813 161.538,318.002 163.994 C 316.222 169.386,308.389 169.533,307.011 164.200 C 306.841 163.540,306.616 163.234,306.511 163.520 C 305.851 165.318,309.623 168.800,312.229 168.800 C 318.629 168.800,321.179 159.885,315.604 157.002 C 314.261 156.308,312.575 156.137,313.600 156.800 M293.720 162.400 C 293.720 163.610,293.795 164.105,293.887 163.500 C 293.978 162.895,293.978 161.905,293.887 161.300 C 293.795 160.695,293.720 161.190,293.720 162.400 M131.978 163.900 L 130.600 165.400 132.100 164.022 C 132.925 163.263,133.600 162.588,133.600 162.522 C 133.600 162.216,133.262 162.504,131.978 163.900 M166.400 162.525 C 166.400 162.594,166.985 163.179,167.700 163.825 L 169.000 165.000 167.825 163.700 C 166.730 162.488,166.400 162.216,166.400 162.525 M146.400 169.200 C 145.661 169.677,146.724 169.677,148.600 169.200 L 149.800 168.895 148.400 168.853 C 147.630 168.831,146.730 168.987,146.400 169.200 M150.033 168.949 C 150.125 169.031,151.100 169.218,152.200 169.365 C 153.620 169.555,154.026 169.514,153.600 169.223 C 153.061 168.854,149.632 168.590,150.033 168.949 M143.131 170.758 C 136.560 174.925,135.688 185.331,141.483 190.419 C 143.416 192.116,146.896 193.693,148.295 193.506 C 149.283 193.374,149.231 193.326,147.800 193.050 C 144.007 192.318,140.802 189.885,139.178 186.508 C 138.122 184.310,137.812 178.028,138.714 177.126 C 138.981 176.859,139.200 176.316,139.200 175.920 C 139.200 175.524,139.380 175.200,139.600 175.200 C 139.820 175.200,140.000 174.948,140.000 174.640 C 140.000 173.839,142.529 171.420,144.189 170.632 C 145.547 169.988,145.956 169.600,145.278 169.600 C 145.101 169.600,144.135 170.121,143.131 170.758 M154.400 169.781 C 154.400 169.881,155.035 170.264,155.811 170.632 C 158.674 171.991,160.877 174.971,161.848 178.800 C 162.241 180.349,162.310 180.433,162.344 179.400 C 162.389 177.995,161.192 175.189,159.727 173.269 C 158.422 171.557,154.400 168.924,154.400 169.781 M260.000 169.725 C 260.000 169.794,260.585 170.379,261.300 171.025 L 262.600 172.200 261.425 170.900 C 260.330 169.688,260.000 169.416,260.000 169.725 M361.188 173.500 L 358.600 176.200 361.300 173.612 C 362.785 172.188,364.000 170.973,364.000 170.912 C 364.000 170.617,363.593 170.992,361.188 173.500 M325.385 175.700 L 323.400 177.800 325.500 175.815 C 327.451 173.971,327.783 173.600,327.485 173.600 C 327.422 173.600,326.477 174.545,325.385 175.700 M255.000 182.400 C 256.083 183.500,257.060 184.400,257.170 184.400 C 257.280 184.400,256.483 183.500,255.400 182.400 C 254.317 181.300,253.340 180.400,253.230 180.400 C 253.120 180.400,253.917 181.300,255.000 182.400 M161.829 183.800 C 160.929 188.324,156.967 192.129,152.200 193.050 C 150.785 193.323,150.726 193.375,151.692 193.505 C 155.674 194.040,162.952 186.903,162.302 183.103 C 162.186 182.426,162.068 182.601,161.829 183.800 M265.694 191.290 C 266.882 192.300,269.200 193.747,269.200 193.479 C 269.200 193.388,268.165 192.649,266.900 191.837 C 265.635 191.025,265.092 190.779,265.694 191.290 M309.900 193.896 C 311.275 193.974,313.525 193.974,314.900 193.896 C 316.275 193.818,315.150 193.754,312.400 193.754 C 309.650 193.754,308.525 193.818,309.900 193.896 M132.200 198.800 C 133.283 199.900,134.260 200.800,134.370 200.800 C 134.480 200.800,133.683 199.900,132.600 198.800 C 131.517 197.700,130.540 196.800,130.430 196.800 C 130.320 196.800,131.117 197.700,132.200 198.800 M167.385 198.900 L 165.400 201.000 167.500 199.015 C 168.655 197.923,169.600 196.978,169.600 196.915 C 169.600 196.617,169.229 196.949,167.385 198.900 M338.000 202.000 C 337.467 202.345,337.467 202.388,338.000 202.388 C 338.330 202.388,338.870 202.213,339.200 202.000 C 339.733 201.655,339.733 201.612,339.200 201.612 C 338.870 201.612,338.330 201.787,338.000 202.000 M335.400 202.800 L 334.600 203.144 335.400 203.166 C 335.840 203.178,336.470 203.013,336.800 202.800 C 337.595 202.286,336.596 202.286,335.400 202.800 M332.600 203.600 L 331.800 203.944 332.600 203.966 C 333.040 203.978,333.670 203.813,334.000 203.600 C 334.795 203.086,333.796 203.086,332.600 203.600 M331.299 264.851 C 331.192 330.724,331.300 327.494,329.135 329.440 C 328.621 329.903,327.840 330.443,327.400 330.640 C 326.934 330.850,265.981 331.084,181.400 331.201 L 36.200 331.402 181.113 331.501 C 302.085 331.584,326.239 331.511,327.319 331.060 C 329.039 330.341,331.104 327.933,331.394 326.309 C 331.522 325.589,331.575 297.730,331.512 264.400 L 331.397 203.800 331.299 264.851 M300.900 205.476 C 301.285 205.576,301.915 205.576,302.300 205.476 C 302.685 205.375,302.370 205.293,301.600 205.293 C 300.830 205.293,300.515 205.375,300.900 205.476 M148.900 206.287 C 149.505 206.378,150.495 206.378,151.100 206.287 C 151.705 206.195,151.210 206.120,150.000 206.120 C 148.790 206.120,148.295 206.195,148.900 206.287 M310.300 206.293 C 311.235 206.377,312.765 206.377,313.700 206.293 C 314.635 206.209,313.870 206.140,312.000 206.140 C 310.130 206.140,309.365 206.209,310.300 206.293 M108.900 219.076 C 109.285 219.176,109.915 219.176,110.300 219.076 C 110.685 218.975,110.370 218.893,109.600 218.893 C 108.830 218.893,108.515 218.975,108.900 219.076 M120.900 219.076 C 121.285 219.176,121.915 219.176,122.300 219.076 C 122.685 218.975,122.370 218.893,121.600 218.893 C 120.830 218.893,120.515 218.975,120.900 219.076 M247.505 219.083 C 248.002 219.179,248.722 219.175,249.105 219.075 C 249.487 218.975,249.080 218.896,248.200 218.901 C 247.320 218.905,247.007 218.987,247.505 219.083 M260.705 219.083 C 261.202 219.179,261.922 219.175,262.305 219.075 C 262.687 218.975,262.280 218.896,261.400 218.901 C 260.520 218.905,260.207 218.987,260.705 219.083 M124.100 219.476 C 124.485 219.576,125.115 219.576,125.500 219.476 C 125.885 219.375,125.570 219.293,124.800 219.293 C 124.030 219.293,123.715 219.375,124.100 219.476 M244.100 219.476 C 244.485 219.576,245.115 219.576,245.500 219.476 C 245.885 219.375,245.570 219.293,244.800 219.293 C 244.030 219.293,243.715 219.375,244.100 219.476 M264.100 219.476 C 264.485 219.576,265.115 219.576,265.500 219.476 C 265.885 219.375,265.570 219.293,264.800 219.293 C 264.030 219.293,263.715 219.375,264.100 219.476 M106.600 231.821 C 99.258 232.755,93.319 234.257,87.092 236.753 C 75.575 241.368,70.366 245.195,55.500 259.960 L 44.000 271.382 44.000 295.091 L 44.000 318.801 181.300 318.701 L 318.600 318.600 318.600 306.200 L 318.600 293.800 286.000 293.569 C 250.835 293.320,250.925 293.325,239.200 290.965 C 231.037 289.322,219.824 285.947,215.905 283.953 C 215.523 283.759,215.046 283.600,214.845 283.600 C 213.961 283.600,204.341 278.907,198.600 275.675 C 192.683 272.343,182.310 265.117,178.592 261.735 C 178.148 261.331,176.978 260.300,175.992 259.443 C 175.006 258.587,172.580 256.328,170.600 254.424 C 152.177 236.701,129.947 228.851,106.600 231.821 M244.800 231.649 C 225.734 234.193,209.750 240.917,195.686 252.312 C 193.644 253.966,191.886 255.460,191.780 255.632 C 191.409 256.233,199.305 261.738,205.800 265.404 C 216.994 271.723,229.915 276.504,242.400 278.945 C 253.254 281.068,255.626 281.183,288.500 281.192 L 318.800 281.200 318.800 267.446 L 318.800 253.692 317.826 253.054 C 317.290 252.702,316.210 252.052,315.426 251.608 C 314.641 251.163,313.370 250.440,312.600 250.000 C 311.830 249.560,310.570 248.840,309.800 248.400 C 309.030 247.960,307.815 247.265,307.100 246.857 C 306.385 246.448,304.990 245.634,304.000 245.048 C 288.473 235.855,271.423 231.124,254.284 231.251 C 250.498 231.279,246.230 231.458,244.800 231.649 M264.600 232.392 C 273.402 233.331,283.387 235.794,289.900 238.633 C 290.615 238.945,291.875 239.488,292.700 239.840 C 295.198 240.907,301.165 243.964,301.600 244.401 C 301.710 244.511,302.340 244.871,303.000 245.200 C 303.660 245.529,304.290 245.889,304.400 245.999 C 304.510 246.110,305.030 246.442,305.555 246.738 C 306.080 247.033,307.115 247.618,307.855 248.038 C 308.595 248.457,309.875 249.177,310.700 249.639 C 311.525 250.100,313.190 251.045,314.400 251.739 C 315.610 252.432,316.960 253.185,317.400 253.412 C 318.173 253.809,318.204 254.282,318.305 267.342 L 318.411 280.860 287.305 280.682 C 253.488 280.488,251.730 280.385,240.400 277.937 C 239.410 277.723,237.924 277.451,237.097 277.332 C 236.271 277.213,235.495 276.955,235.374 276.758 C 235.252 276.561,234.634 276.400,234.000 276.400 C 233.366 276.400,232.736 276.220,232.600 276.000 C 232.464 275.780,231.834 275.600,231.200 275.600 C 230.566 275.600,229.936 275.420,229.800 275.200 C 229.664 274.980,229.124 274.800,228.600 274.800 C 228.076 274.800,227.536 274.620,227.400 274.400 C 227.264 274.180,226.713 274.000,226.176 274.000 C 225.639 274.000,225.200 273.820,225.200 273.600 C 225.200 273.380,224.838 273.200,224.395 273.200 C 223.952 273.200,223.277 273.041,222.895 272.847 C 222.207 272.497,220.844 271.925,219.100 271.254 C 214.294 269.404,198.778 260.854,196.200 258.634 C 195.540 258.066,194.866 257.601,194.703 257.600 C 194.540 257.600,193.951 257.204,193.394 256.720 L 192.381 255.839 193.291 255.009 C 196.300 252.259,206.718 244.800,207.549 244.800 C 207.760 244.800,207.993 244.665,208.067 244.500 C 208.369 243.819,219.410 238.400,220.495 238.400 C 220.795 238.400,221.211 238.238,221.420 238.040 C 221.901 237.584,228.516 235.485,232.200 234.620 C 233.740 234.258,235.360 233.870,235.800 233.758 C 237.432 233.342,241.526 232.778,245.778 232.383 C 248.186 232.160,250.256 231.871,250.378 231.742 C 250.650 231.455,259.678 231.867,264.600 232.392 M171.600 238.525 C 171.600 238.594,172.185 239.179,172.900 239.825 L 174.200 241.000 173.025 239.700 C 171.930 238.488,171.600 238.216,171.600 238.525 M54.400 243.000 C 53.428 243.990,52.723 244.800,52.833 244.800 C 52.943 244.800,53.828 243.990,54.800 243.000 C 55.772 242.010,56.477 241.200,56.367 241.200 C 56.257 241.200,55.372 242.010,54.400 243.000 M176.000 242.600 C 176.746 243.370,177.447 244.000,177.557 244.000 C 177.667 244.000,177.146 243.370,176.400 242.600 C 175.654 241.830,174.953 241.200,174.843 241.200 C 174.733 241.200,175.254 241.830,176.000 242.600 M48.592 248.900 L 45.000 252.600 48.700 249.008 C 52.136 245.672,52.582 245.200,52.292 245.200 C 52.232 245.200,50.567 246.865,48.592 248.900 M18.868 327.400 C 18.862 328.060,19.011 328.960,19.200 329.400 C 19.670 330.494,19.670 328.667,19.200 327.200 C 18.888 326.225,18.879 326.230,18.868 327.400 M31.216 326.520 C 31.150 327.844,33.594 330.561,35.200 330.950 C 36.014 331.147,35.976 331.088,34.997 330.634 C 33.624 329.998,32.776 329.122,31.866 327.400 C 31.517 326.740,31.225 326.344,31.216 326.520 M342.978 328.578 C 342.827 329.381,342.794 330.127,342.904 330.237 C 343.014 330.347,343.227 329.781,343.378 328.978 C 343.528 328.175,343.562 327.428,343.452 327.318 C 343.342 327.208,343.128 327.775,342.978 328.578 M19.612 330.800 C 19.612 331.130,19.787 331.670,20.000 332.000 C 20.345 332.533,20.388 332.533,20.388 332.000 C 20.388 331.670,20.213 331.130,20.000 330.800 C 19.655 330.267,19.612 330.267,19.612 330.800 M341.453 333.226 C 339.986 336.334,336.334 339.986,333.226 341.453 C 331.916 342.072,330.913 342.647,330.997 342.731 C 331.461 343.195,336.004 340.337,338.138 338.239 C 340.287 336.125,343.225 331.492,342.731 330.997 C 342.647 330.913,342.072 331.916,341.453 333.226 M20.986 333.900 C 21.335 334.615,21.706 335.200,21.810 335.200 C 22.208 335.200,21.952 334.563,21.167 333.600 L 20.352 332.600 20.986 333.900 M22.598 336.400 C 23.958 338.169,26.556 340.413,28.200 341.240 L 29.800 342.045 28.800 341.232 C 28.250 340.784,27.625 340.414,27.411 340.409 C 27.197 340.404,25.853 339.275,24.425 337.900 C 22.997 336.525,22.175 335.850,22.598 336.400 M32.800 343.200 C 33.350 343.376,34.160 343.526,34.600 343.532 L 35.400 343.544 34.600 343.200 C 34.160 343.011,33.350 342.862,32.800 342.868 L 31.800 342.880 32.800 343.200 M327.800 343.200 L 327.000 343.544 327.800 343.532 C 328.240 343.526,329.050 343.376,329.600 343.200 L 330.600 342.880 329.600 342.868 C 329.050 342.862,328.240 343.011,327.800 343.200 " stroke="none" fill="#8bb845" fill-rule="evenodd"></path><path id="path1" d="M301.007 43.588 C 300.867 43.815,299.784 44.000,298.600 44.000 C 297.416 44.000,296.336 44.180,296.200 44.400 C 296.064 44.620,295.243 44.800,294.376 44.800 C 293.509 44.800,292.800 44.980,292.800 45.200 C 292.800 45.420,292.080 45.600,291.200 45.600 C 290.320 45.600,289.600 45.780,289.600 46.000 C 289.600 46.220,289.060 46.400,288.400 46.400 C 287.740 46.400,287.200 46.580,287.200 46.800 C 287.200 47.020,286.660 47.200,286.000 47.200 C 285.340 47.200,284.800 47.380,284.800 47.600 C 284.800 47.820,284.361 48.000,283.824 48.000 C 283.287 48.000,282.736 48.180,282.600 48.400 C 282.464 48.620,282.003 48.800,281.576 48.800 C 281.149 48.800,280.800 48.980,280.800 49.200 C 280.800 49.420,280.528 49.600,280.195 49.600 C 279.862 49.600,279.277 49.768,278.895 49.974 C 278.513 50.179,277.615 50.583,276.900 50.871 C 276.185 51.160,275.600 51.531,275.600 51.698 C 275.600 51.864,275.240 52.000,274.800 52.000 C 274.360 52.000,274.000 52.180,274.000 52.400 C 274.000 52.620,273.680 52.800,273.288 52.800 C 272.897 52.800,272.317 53.160,272.000 53.600 C 271.683 54.040,271.103 54.400,270.712 54.400 C 270.320 54.400,270.000 54.580,270.000 54.800 C 270.000 55.020,269.680 55.200,269.288 55.200 C 268.897 55.200,268.317 55.560,268.000 56.000 C 267.683 56.440,267.143 56.800,266.800 56.800 C 266.457 56.800,265.917 57.160,265.600 57.600 C 265.283 58.040,264.862 58.400,264.665 58.400 C 263.457 58.400,248.400 72.441,248.400 73.567 C 248.400 73.759,247.905 74.448,247.300 75.098 C 245.051 77.517,244.029 79.032,242.170 82.700 C 241.585 83.855,240.947 84.800,240.753 84.800 C 240.559 84.800,240.400 85.160,240.400 85.600 C 240.400 86.040,240.220 86.400,240.000 86.400 C 239.780 86.400,239.600 86.760,239.600 87.200 C 239.600 87.640,239.420 88.000,239.200 88.000 C 238.980 88.000,238.800 88.360,238.800 88.800 C 238.800 89.240,238.620 89.600,238.400 89.600 C 238.180 89.600,238.000 89.924,238.000 90.320 C 238.000 91.214,237.106 93.193,236.700 93.197 C 236.535 93.199,236.400 93.650,236.400 94.200 C 236.400 94.750,236.220 95.200,236.000 95.200 C 235.780 95.200,235.600 95.650,235.600 96.200 C 235.600 96.750,235.420 97.200,235.200 97.200 C 234.980 97.200,234.800 97.740,234.800 98.400 C 234.800 99.060,234.620 99.600,234.400 99.600 C 234.180 99.600,234.000 100.219,234.000 100.976 C 234.000 101.733,233.820 102.464,233.600 102.600 C 233.380 102.736,233.200 103.341,233.200 103.944 C 233.200 104.547,232.984 105.256,232.720 105.520 C 232.349 105.891,209.236 106.000,131.120 106.000 C 63.973 106.000,30.000 106.134,30.000 106.400 C 30.000 106.620,29.465 106.800,28.812 106.800 C 28.159 106.800,26.983 107.160,26.200 107.600 C 25.417 108.040,24.517 108.400,24.201 108.400 C 23.399 108.400,20.800 109.679,20.800 110.074 C 20.800 110.253,20.522 110.400,20.182 110.400 C 19.842 110.400,19.114 110.850,18.564 111.400 C 18.014 111.950,17.391 112.400,17.179 112.400 C 16.627 112.400,12.000 117.177,12.000 117.747 C 12.000 118.009,11.640 118.483,11.200 118.800 C 10.760 119.117,10.400 119.697,10.400 120.088 C 10.400 120.480,10.253 120.800,10.074 120.800 C 9.626 120.800,8.400 123.447,8.400 124.414 C 8.400 124.846,8.220 125.200,8.000 125.200 C 7.780 125.200,7.600 125.650,7.600 126.200 C 7.600 126.750,7.420 127.200,7.200 127.200 C 6.980 127.200,6.800 127.830,6.800 128.600 C 6.800 129.370,6.620 130.000,6.400 130.000 C 6.134 130.000,6.000 164.000,6.000 231.200 C 6.000 298.400,6.134 332.400,6.400 332.400 C 6.620 332.400,6.800 333.120,6.800 334.000 C 6.800 334.880,6.980 335.600,7.200 335.600 C 7.420 335.600,7.600 335.872,7.600 336.205 C 7.600 336.538,7.762 337.123,7.959 337.505 C 8.156 337.887,8.634 338.965,9.020 339.900 C 9.406 340.835,9.874 341.600,10.061 341.600 C 10.247 341.600,10.400 341.920,10.400 342.312 C 10.400 342.703,10.760 343.283,11.200 343.600 C 11.640 343.917,12.000 344.397,12.000 344.666 C 12.000 345.304,17.096 350.400,17.734 350.400 C 18.003 350.400,18.483 350.760,18.800 351.200 C 19.117 351.640,19.697 352.000,20.088 352.000 C 20.480 352.000,20.800 352.147,20.800 352.326 C 20.800 352.792,23.931 354.400,24.838 354.400 C 25.257 354.400,25.600 354.580,25.600 354.800 C 25.600 355.020,25.949 355.200,26.376 355.200 C 26.803 355.200,27.264 355.380,27.400 355.600 C 27.536 355.820,28.166 356.000,28.800 356.000 C 29.434 356.000,30.064 356.180,30.200 356.400 C 30.364 356.666,81.130 356.800,181.200 356.800 C 281.270 356.800,332.036 356.666,332.200 356.400 C 332.336 356.180,332.799 356.000,333.230 356.000 C 334.338 356.000,337.200 355.065,337.200 354.703 C 337.200 354.536,337.453 354.400,337.762 354.400 C 338.519 354.400,341.600 352.735,341.600 352.326 C 341.600 352.147,341.920 352.000,342.312 352.000 C 342.703 352.000,343.283 351.640,343.600 351.200 C 343.917 350.760,344.397 350.400,344.666 350.400 C 345.304 350.400,350.400 345.304,350.400 344.666 C 350.400 344.397,350.760 343.917,351.200 343.600 C 351.640 343.283,352.000 342.743,352.000 342.400 C 352.000 342.057,352.360 341.517,352.800 341.200 C 353.240 340.883,353.600 340.314,353.600 339.935 C 353.600 339.557,353.780 339.136,354.000 339.000 C 354.220 338.864,354.400 338.403,354.400 337.976 C 354.400 337.549,354.536 337.200,354.703 337.200 C 355.065 337.200,356.000 334.338,356.000 333.230 C 356.000 332.799,356.180 332.336,356.400 332.200 C 356.664 332.037,356.800 308.586,356.800 263.148 C 356.800 191.908,356.774 193.200,358.225 193.200 C 358.379 193.200,358.797 192.867,359.153 192.459 C 359.509 192.052,360.430 191.395,361.200 191.000 C 361.970 190.605,362.891 189.948,363.247 189.541 C 363.603 189.133,364.089 188.800,364.328 188.800 C 364.567 188.800,366.886 186.647,369.481 184.015 C 375.329 178.084,376.000 177.341,376.000 176.783 C 376.000 176.538,376.720 175.646,377.600 174.800 C 378.480 173.954,379.200 173.069,379.200 172.831 C 379.200 172.594,379.350 172.400,379.532 172.400 C 379.715 172.400,380.120 171.905,380.432 171.300 C 380.745 170.695,381.315 169.851,381.700 169.425 C 382.085 168.998,382.400 168.413,382.400 168.125 C 382.400 167.836,382.580 167.600,382.800 167.600 C 383.020 167.600,383.200 167.240,383.200 166.800 C 383.200 166.360,383.354 166.000,383.542 166.000 C 383.996 166.000,387.208 159.596,387.203 158.700 C 387.201 158.315,387.336 158.000,387.502 158.000 C 387.669 158.000,388.044 157.415,388.336 156.700 C 388.628 155.985,389.020 155.040,389.207 154.600 C 390.192 152.283,391.258 148.624,391.471 146.830 C 391.603 145.714,391.866 144.800,392.056 144.800 C 392.245 144.800,392.400 144.001,392.400 143.024 C 392.400 142.047,392.580 141.136,392.800 141.000 C 393.020 140.864,393.200 139.773,393.200 138.576 C 393.200 137.379,393.380 136.400,393.600 136.400 C 393.857 136.400,394.000 132.267,394.000 124.800 C 394.000 117.333,393.857 113.200,393.600 113.200 C 393.378 113.200,393.200 112.133,393.200 110.800 C 393.200 109.467,393.022 108.400,392.800 108.400 C 392.580 108.400,392.400 107.680,392.400 106.800 C 392.400 105.920,392.220 105.200,392.000 105.200 C 391.780 105.200,391.600 104.591,391.600 103.846 C 391.600 102.496,390.652 98.823,389.963 97.505 C 389.763 97.123,389.600 96.555,389.600 96.243 C 389.600 95.754,389.051 94.484,387.550 91.505 C 387.357 91.123,387.200 90.538,387.200 90.205 C 387.200 89.872,387.020 89.600,386.800 89.600 C 386.580 89.600,386.400 89.240,386.400 88.800 C 386.400 88.360,386.220 88.000,386.000 88.000 C 385.780 88.000,385.600 87.640,385.600 87.200 C 385.600 86.760,385.420 86.400,385.200 86.400 C 384.980 86.400,384.800 86.122,384.800 85.783 C 384.800 85.444,384.440 84.780,384.000 84.308 C 383.560 83.836,383.200 83.213,383.200 82.925 C 383.200 82.636,383.020 82.400,382.800 82.400 C 382.580 82.400,382.400 82.080,382.400 81.688 C 382.400 81.297,382.040 80.717,381.600 80.400 C 381.160 80.083,380.800 79.543,380.800 79.200 C 380.800 78.857,380.440 78.317,380.000 78.000 C 379.560 77.683,379.200 77.258,379.200 77.055 C 379.200 76.852,378.660 76.171,378.000 75.540 C 377.340 74.909,376.800 74.221,376.800 74.010 C 376.800 73.280,364.755 60.800,364.050 60.800 C 363.862 60.800,363.099 60.263,362.354 59.606 C 361.609 58.950,360.725 58.410,360.388 58.406 C 360.052 58.403,359.517 58.040,359.200 57.600 C 358.883 57.160,358.476 56.800,358.295 56.800 C 358.114 56.800,357.580 56.440,357.108 56.000 C 356.636 55.560,356.013 55.200,355.725 55.200 C 355.436 55.200,355.200 55.020,355.200 54.800 C 355.200 54.580,354.930 54.400,354.600 54.400 C 354.270 54.400,354.000 54.220,354.000 54.000 C 354.000 53.780,353.730 53.600,353.400 53.600 C 353.070 53.600,352.800 53.420,352.800 53.200 C 352.800 52.980,352.440 52.800,352.000 52.800 C 351.560 52.800,351.200 52.620,351.200 52.400 C 351.200 52.180,350.840 52.000,350.400 52.000 C 349.960 52.000,349.600 51.820,349.600 51.600 C 349.600 51.380,349.240 51.200,348.800 51.200 C 348.360 51.200,348.000 51.020,348.000 50.800 C 348.000 50.580,347.640 50.400,347.200 50.400 C 346.760 50.400,346.400 50.220,346.400 50.000 C 346.400 49.780,345.961 49.600,345.424 49.600 C 344.887 49.600,344.336 49.420,344.200 49.200 C 344.064 48.980,343.603 48.800,343.176 48.800 C 342.749 48.800,342.400 48.620,342.400 48.400 C 342.400 48.180,341.961 48.000,341.424 48.000 C 340.887 48.000,340.336 47.820,340.200 47.600 C 340.064 47.380,339.513 47.200,338.976 47.200 C 338.439 47.200,338.000 47.020,338.000 46.800 C 338.000 46.580,337.471 46.400,336.824 46.400 C 336.177 46.400,335.536 46.220,335.400 46.000 C 335.264 45.780,334.533 45.600,333.776 45.600 C 333.019 45.600,332.400 45.438,332.400 45.240 C 332.400 45.042,331.635 44.779,330.700 44.655 C 329.765 44.531,327.830 44.220,326.400 43.964 C 322.963 43.349,301.353 43.029,301.007 43.588 M320.600 56.603 C 325.348 57.246,327.691 57.682,330.200 58.392 C 331.080 58.641,332.340 58.999,333.000 59.187 C 334.055 59.487,335.376 59.973,339.682 61.646 C 349.964 65.639,362.091 75.573,369.169 85.800 C 370.962 88.391,371.573 89.413,374.126 94.100 C 381.792 108.169,383.412 129.913,378.015 146.291 C 371.525 165.984,356.272 182.090,337.400 189.177 C 336.080 189.672,334.640 190.225,334.200 190.406 C 333.760 190.586,332.950 190.846,332.400 190.985 C 331.850 191.123,330.500 191.474,329.400 191.765 C 318.172 194.728,305.818 194.610,294.200 191.427 C 275.774 186.379,259.151 172.694,250.925 155.800 C 249.578 153.036,248.974 151.602,247.216 147.000 C 246.515 145.163,245.371 140.806,244.854 138.000 C 243.820 132.387,243.600 130.144,243.600 125.231 C 243.600 118.965,244.253 113.884,245.841 107.800 C 246.128 106.700,246.477 105.350,246.615 104.800 C 246.754 104.250,247.014 103.440,247.194 103.000 C 247.375 102.560,247.930 101.120,248.428 99.800 C 255.346 81.478,271.742 65.880,290.600 59.681 C 293.862 58.609,295.281 58.219,299.000 57.372 C 304.850 56.040,314.030 55.713,320.600 56.603 M308.485 69.404 C 301.667 71.068,296.340 76.248,294.556 82.947 C 293.622 86.457,293.767 120.179,294.732 123.658 C 299.875 142.203,326.110 141.388,330.612 122.542 C 331.330 119.535,331.450 87.662,330.756 84.331 C 328.538 73.692,318.497 66.962,308.485 69.404 M315.059 81.790 C 316.300 82.409,317.460 83.592,318.300 85.095 C 319.259 86.811,318.994 119.651,318.005 121.590 C 315.666 126.174,309.363 126.135,306.962 121.520 C 305.957 119.588,306.156 85.779,307.181 84.223 C 308.898 81.618,312.491 80.508,315.059 81.790 M231.400 125.000 L 231.400 131.200 133.985 131.200 L 36.570 131.200 34.785 132.100 C 33.481 132.757,32.757 133.481,32.100 134.785 L 31.200 136.570 31.200 231.305 C 31.200 333.865,31.063 326.968,33.140 329.333 C 34.876 331.310,26.172 331.200,181.230 331.200 C 292.288 331.200,326.223 331.089,327.081 330.724 C 327.697 330.462,328.621 329.877,329.135 329.424 C 331.304 327.513,331.200 330.761,331.200 264.968 L 331.200 204.034 334.100 203.190 C 336.708 202.431,341.051 200.956,342.900 200.200 C 343.751 199.853,344.009 326.668,343.164 329.800 C 341.449 336.155,335.869 341.662,329.600 343.186 C 328.309 343.500,286.037 343.592,180.200 343.512 L 32.600 343.400 29.600 341.959 C 24.719 339.615,21.229 335.637,19.526 330.477 C 18.833 328.375,18.800 323.910,18.800 231.404 L 18.800 134.532 19.642 131.966 C 21.659 125.817,25.523 121.854,31.530 119.772 L 34.200 118.847 132.800 118.823 L 231.400 118.800 231.400 125.000 M233.896 144.700 C 234.112 145.305,234.469 146.430,234.690 147.200 C 235.913 151.460,236.168 152.234,236.470 152.580 C 236.651 152.789,236.800 153.196,236.800 153.484 C 236.800 154.610,240.333 161.942,243.121 166.600 C 253.062 183.216,269.249 196.166,287.309 201.950 C 295.859 204.689,304.638 206.051,313.200 205.967 L 318.600 205.914 318.704 222.557 C 318.762 231.711,318.691 239.200,318.548 239.200 C 318.404 239.200,315.582 237.650,312.276 235.755 C 306.658 232.536,297.194 227.600,296.638 227.600 C 296.502 227.600,295.628 227.261,294.696 226.847 C 293.763 226.433,292.370 225.875,291.600 225.607 C 290.830 225.339,289.840 224.976,289.400 224.800 C 288.215 224.327,286.427 223.755,284.400 223.200 C 283.410 222.929,282.150 222.570,281.600 222.403 C 280.606 222.101,278.138 221.550,274.500 220.817 C 269.252 219.761,259.863 218.799,254.800 218.799 C 246.967 218.799,234.450 220.569,226.700 222.773 C 225.875 223.008,224.615 223.359,223.900 223.554 C 222.498 223.935,221.463 224.284,220.200 224.799 C 219.760 224.978,217.420 225.900,215.000 226.846 C 205.341 230.626,190.729 239.474,186.000 244.409 C 182.771 247.777,181.826 247.997,179.600 245.898 C 177.711 244.116,171.594 238.730,170.010 237.454 C 165.819 234.078,154.406 227.512,149.200 225.483 C 148.650 225.268,147.840 224.949,147.400 224.773 C 131.412 218.373,109.209 217.235,92.700 221.970 C 91.875 222.206,90.615 222.565,89.900 222.767 C 88.081 223.280,86.550 223.803,84.000 224.781 C 82.790 225.245,81.260 225.828,80.600 226.075 C 71.487 229.493,61.226 236.727,50.572 247.248 C 47.257 250.521,44.332 253.200,44.072 253.200 C 43.712 253.200,43.600 240.243,43.600 198.400 L 43.600 143.600 138.551 143.600 L 233.503 143.600 233.896 144.700 M307.875 144.601 C 304.569 145.509,301.690 147.238,299.272 149.765 C 284.605 165.093,302.681 188.472,321.600 178.643 C 323.065 177.882,328.000 173.279,328.000 172.673 C 328.000 172.481,328.322 171.846,328.715 171.262 C 337.225 158.616,323.017 140.438,307.875 144.601 M145.000 156.996 C 125.135 162.042,118.520 184.659,132.771 198.807 C 152.741 218.633,184.763 194.508,171.715 169.467 C 170.271 166.696,164.604 160.400,163.554 160.400 C 163.317 160.400,162.646 160.061,162.062 159.647 C 158.403 157.053,149.947 155.740,145.000 156.996 M315.604 157.002 C 318.042 158.263,319.411 162.128,318.324 164.681 C 315.582 171.120,306.396 169.454,306.401 162.520 C 306.405 157.849,311.423 154.840,315.604 157.002 M154.910 169.743 C 167.364 175.251,163.560 193.598,149.964 193.600 C 141.128 193.601,135.277 185.039,138.403 176.683 C 140.839 170.173,148.551 166.931,154.910 169.743 M123.084 231.605 C 142.919 234.186,156.185 240.557,170.600 254.424 C 172.580 256.328,175.006 258.587,175.992 259.443 C 176.978 260.300,178.148 261.331,178.592 261.735 C 182.310 265.117,192.683 272.343,198.600 275.675 C 204.341 278.907,213.961 283.600,214.845 283.600 C 215.046 283.600,215.523 283.759,215.905 283.953 C 219.824 285.947,231.037 289.322,239.200 290.965 C 250.925 293.325,250.835 293.320,286.000 293.569 L 318.600 293.800 318.600 306.200 L 318.600 318.600 181.300 318.701 L 44.000 318.801 44.000 295.091 L 44.000 271.382 55.500 259.960 C 61.825 253.678,68.350 247.552,70.000 246.346 C 81.327 238.071,92.579 233.605,106.600 231.821 C 111.661 231.177,119.049 231.081,123.084 231.605 M264.284 231.605 C 279.000 233.520,291.909 237.889,304.000 245.048 C 304.990 245.634,306.385 246.448,307.100 246.857 C 307.815 247.265,309.030 247.960,309.800 248.400 C 310.570 248.840,311.830 249.560,312.600 250.000 C 313.370 250.440,314.641 251.163,315.426 251.608 C 316.210 252.052,317.290 252.702,317.826 253.054 L 318.800 253.692 318.800 267.446 L 318.800 281.200 288.500 281.192 C 255.626 281.183,253.254 281.068,242.400 278.945 C 229.915 276.504,216.994 271.723,205.800 265.404 C 199.305 261.738,191.409 256.233,191.780 255.632 C 191.886 255.460,193.644 253.966,195.686 252.312 C 209.750 240.917,225.734 234.193,244.800 231.649 C 248.511 231.154,260.605 231.127,264.284 231.605 " stroke="none" fill="#040404" fill-rule="evenodd"></path><path id="path2" d="M309.109 56.613 C 308.950 56.779,307.150 57.059,305.109 57.235 C 301.406 57.554,298.999 57.950,295.600 58.800 C 294.610 59.047,293.303 59.349,292.695 59.471 C 292.087 59.593,291.492 59.851,291.371 60.046 C 291.251 60.241,290.837 60.400,290.452 60.400 C 290.066 60.400,289.005 60.760,288.094 61.200 C 287.184 61.640,286.269 62.000,286.062 62.000 C 285.434 62.000,277.987 65.975,275.000 67.904 C 269.714 71.318,263.935 76.586,259.600 81.942 C 258.830 82.894,257.795 84.151,257.300 84.736 C 256.806 85.321,256.401 85.943,256.400 86.117 C 256.400 86.291,256.047 86.812,255.615 87.276 C 254.616 88.349,248.800 99.855,248.800 100.760 C 248.800 101.134,248.651 101.611,248.470 101.820 C 248.288 102.029,247.907 103.010,247.624 104.000 C 247.341 104.990,246.962 106.160,246.782 106.600 C 246.602 107.040,246.345 108.030,246.212 108.800 C 246.079 109.570,245.787 111.100,245.564 112.200 C 244.283 118.508,243.994 125.354,244.718 132.200 C 245.181 136.583,245.796 139.654,247.201 144.600 C 247.451 145.480,247.755 146.608,247.876 147.106 C 247.997 147.604,248.254 148.110,248.448 148.230 C 248.641 148.349,248.800 148.728,248.800 149.071 C 248.800 150.398,254.240 160.994,255.994 163.083 C 256.217 163.349,256.400 163.674,256.400 163.807 C 256.400 164.438,260.724 169.517,264.597 173.435 C 270.641 179.549,279.171 185.134,287.600 188.495 C 288.150 188.714,288.913 189.052,289.295 189.247 C 289.677 189.441,290.341 189.600,290.771 189.600 C 291.201 189.600,291.664 189.780,291.800 190.000 C 291.936 190.220,292.566 190.400,293.200 190.400 C 293.834 190.400,294.464 190.580,294.600 190.800 C 294.736 191.020,295.341 191.200,295.944 191.200 C 296.547 191.200,297.211 191.363,297.420 191.561 C 297.835 191.956,299.439 192.186,306.400 192.849 C 312.937 193.472,322.922 193.173,323.437 192.339 C 323.553 192.153,324.436 192.000,325.400 192.000 C 326.364 192.000,327.264 191.820,327.400 191.600 C 327.536 191.380,328.256 191.200,329.000 191.200 C 329.744 191.200,330.464 191.020,330.600 190.800 C 330.736 190.580,331.366 190.400,332.000 190.400 C 332.634 190.400,333.264 190.220,333.400 190.000 C 333.536 189.780,333.999 189.600,334.429 189.600 C 334.859 189.600,335.523 189.441,335.905 189.247 C 336.287 189.052,337.050 188.714,337.600 188.495 C 339.749 187.638,345.807 184.591,345.933 184.304 C 346.007 184.137,346.237 184.000,346.446 184.000 C 346.895 184.000,351.930 180.753,354.172 179.017 C 363.749 171.601,371.653 161.139,376.095 150.000 C 376.314 149.450,376.652 148.687,376.847 148.305 C 377.041 147.923,377.200 147.336,377.200 147.000 C 377.200 146.664,377.362 146.077,377.561 145.695 C 377.906 145.030,378.486 143.012,379.196 140.000 C 381.040 132.182,381.196 120.682,379.577 112.000 C 379.351 110.790,379.064 109.213,378.939 108.496 C 378.814 107.779,378.551 107.094,378.356 106.973 C 378.160 106.852,378.000 106.259,378.000 105.656 C 378.000 105.053,377.857 104.389,377.682 104.180 C 377.507 103.971,377.135 103.080,376.855 102.200 C 375.942 99.326,371.802 90.605,370.907 89.671 C 370.628 89.381,370.400 88.989,370.400 88.800 C 370.400 87.412,361.500 77.070,356.583 72.744 C 352.774 69.392,342.689 63.411,337.800 61.603 C 337.360 61.440,336.550 61.115,336.000 60.880 C 335.450 60.645,334.280 60.238,333.400 59.975 C 332.520 59.713,331.387 59.341,330.881 59.149 C 330.376 58.957,329.557 58.800,329.061 58.800 C 328.566 58.800,327.989 58.638,327.780 58.441 C 326.944 57.651,309.734 55.966,309.109 56.613 M317.172 68.857 C 324.147 71.089,328.911 75.853,331.143 82.828 C 332.055 85.680,331.756 121.392,330.795 124.319 C 325.035 141.867,300.574 142.307,294.456 124.973 C 293.499 122.261,293.078 83.170,294.000 82.600 C 294.220 82.464,294.400 82.039,294.400 81.655 C 294.400 74.248,308.774 66.170,317.172 68.857 M317.400 144.000 C 317.536 144.220,317.961 144.400,318.345 144.400 C 322.175 144.400,328.902 151.113,330.768 156.796 C 333.347 164.652,329.121 175.912,322.500 178.824 C 321.785 179.138,321.200 179.531,321.200 179.698 C 321.200 179.864,320.851 180.000,320.424 180.000 C 319.997 180.000,319.536 180.180,319.400 180.400 C 319.264 180.620,318.724 180.800,318.200 180.800 C 317.676 180.800,317.136 180.980,317.000 181.200 C 316.660 181.750,309.389 181.706,307.628 181.143 C 300.869 178.980,296.955 175.158,294.047 167.881 C 293.517 166.556,293.445 158.294,293.954 157.295 C 294.148 156.913,294.904 155.340,295.634 153.800 C 297.678 149.486,303.726 144.400,306.811 144.400 C 307.219 144.400,307.664 144.220,307.800 144.000 C 307.941 143.771,309.996 143.600,312.600 143.600 C 315.204 143.600,317.259 143.771,317.400 144.000 M44.000 198.317 L 44.000 252.633 49.900 246.811 C 53.145 243.608,56.520 240.451,57.400 239.794 C 58.280 239.137,59.450 238.188,60.000 237.684 C 63.432 234.540,78.688 225.600,80.622 225.600 C 80.940 225.600,81.200 225.420,81.200 225.200 C 81.200 224.980,81.562 224.800,82.005 224.800 C 82.448 224.800,83.123 224.641,83.505 224.447 C 84.749 223.814,86.169 223.262,87.800 222.777 C 88.680 222.516,89.713 222.144,90.095 221.951 C 90.477 221.758,91.231 221.600,91.771 221.600 C 92.311 221.600,92.852 221.439,92.974 221.242 C 93.095 221.045,93.871 220.785,94.697 220.663 C 95.524 220.541,97.190 220.252,98.400 220.022 C 108.951 218.013,123.321 218.019,133.000 220.035 C 134.100 220.264,135.676 220.549,136.503 220.668 C 137.329 220.787,138.105 221.045,138.226 221.242 C 138.348 221.439,138.830 221.600,139.297 221.600 C 140.125 221.600,144.399 222.923,145.600 223.552 C 145.930 223.724,147.055 224.115,148.100 224.420 C 149.145 224.725,150.000 225.115,150.000 225.287 C 150.000 225.459,150.272 225.600,150.605 225.600 C 150.938 225.600,151.523 225.764,151.905 225.965 C 152.287 226.166,153.590 226.797,154.800 227.367 C 162.641 231.063,171.044 236.971,178.394 243.955 C 181.743 247.137,181.781 247.152,183.266 245.900 C 185.046 244.398,185.725 243.848,187.587 242.394 C 188.569 241.628,189.827 240.595,190.383 240.100 C 190.938 239.605,191.516 239.200,191.667 239.200 C 191.819 239.200,192.208 238.935,192.532 238.611 C 194.677 236.466,208.414 228.692,213.500 226.745 C 216.010 225.784,218.515 224.750,219.295 224.353 C 219.677 224.159,220.341 224.000,220.771 224.000 C 221.201 224.000,221.664 223.820,221.800 223.600 C 221.936 223.380,222.476 223.200,223.000 223.200 C 223.524 223.200,224.052 223.040,224.173 222.844 C 224.294 222.649,224.979 222.401,225.696 222.293 C 226.413 222.186,227.990 221.833,229.200 221.509 C 238.345 219.058,245.989 218.243,257.000 218.543 C 267.942 218.841,272.225 219.395,281.000 221.647 C 281.880 221.873,283.187 222.155,283.904 222.273 C 284.621 222.392,285.306 222.649,285.427 222.844 C 285.548 223.040,286.076 223.200,286.600 223.200 C 287.124 223.200,287.664 223.380,287.800 223.600 C 287.936 223.820,288.399 224.000,288.829 224.000 C 289.584 224.000,289.974 224.144,291.895 225.138 C 292.387 225.392,293.045 225.600,293.357 225.600 C 293.669 225.600,294.616 225.944,295.462 226.364 C 296.308 226.785,298.260 227.708,299.800 228.417 C 302.981 229.881,311.008 234.198,314.620 236.387 C 315.951 237.193,317.346 237.970,317.720 238.114 C 318.353 238.357,318.400 237.274,318.400 222.411 L 318.400 206.447 310.500 206.265 C 302.071 206.071,297.559 205.522,292.400 204.065 C 291.630 203.847,289.920 203.375,288.600 203.014 C 284.998 202.031,279.462 199.755,275.200 197.504 C 273.110 196.401,270.996 195.296,270.503 195.049 C 270.010 194.802,269.605 194.465,269.603 194.300 C 269.601 194.135,269.330 194.000,269.000 194.000 C 268.670 194.000,268.400 193.820,268.400 193.600 C 268.400 193.380,268.164 193.200,267.875 193.200 C 267.587 193.200,266.964 192.840,266.492 192.400 C 266.020 191.960,265.446 191.600,265.217 191.600 C 264.988 191.600,264.800 191.459,264.800 191.286 C 264.800 191.114,264.305 190.679,263.700 190.321 C 260.026 188.144,252.620 180.704,246.648 173.191 C 245.389 171.607,243.600 168.812,243.600 168.428 C 243.600 168.193,243.465 167.999,243.300 167.997 C 243.135 167.995,242.802 167.590,242.560 167.097 C 241.729 165.405,240.200 162.600,239.999 162.400 C 239.889 162.290,239.597 161.750,239.350 161.200 C 239.103 160.650,238.496 159.300,238.000 158.200 C 237.504 157.100,236.941 155.795,236.749 155.300 C 236.557 154.805,236.229 153.995,236.020 153.500 C 235.519 152.313,234.651 149.588,233.791 146.500 L 233.095 144.000 138.547 144.000 L 44.000 144.000 44.000 198.317 M156.200 156.571 C 162.511 158.093,169.727 163.821,172.362 169.400 C 173.089 170.940,173.845 172.513,174.042 172.895 C 174.239 173.277,174.400 174.031,174.400 174.571 C 174.400 175.111,174.580 175.664,174.800 175.800 C 175.033 175.944,175.200 178.196,175.200 181.200 C 175.200 184.204,175.033 186.456,174.800 186.600 C 174.580 186.736,174.400 187.289,174.400 187.829 C 174.400 188.369,174.239 189.123,174.042 189.505 C 173.845 189.887,173.086 191.460,172.355 193.000 C 166.749 204.815,150.841 209.862,138.430 203.764 C 135.082 202.119,129.409 196.895,128.369 194.500 C 128.059 193.785,127.669 193.200,127.502 193.200 C 127.336 193.200,127.200 192.928,127.200 192.595 C 127.200 192.262,127.020 191.632,126.800 191.195 C 126.580 190.758,126.220 190.042,126.000 189.605 C 125.780 189.168,125.600 188.369,125.600 187.829 C 125.600 187.289,125.420 186.736,125.200 186.600 C 124.967 186.456,124.800 184.204,124.800 181.200 C 124.800 178.196,124.967 175.944,125.200 175.800 C 125.420 175.664,125.600 175.111,125.600 174.571 C 125.600 174.031,125.761 173.277,125.958 172.895 C 126.155 172.513,126.914 170.940,127.645 169.400 C 128.625 167.334,129.815 165.758,132.187 163.387 C 134.558 161.015,136.134 159.825,138.200 158.845 C 139.740 158.114,141.313 157.355,141.695 157.158 C 142.077 156.961,142.797 156.797,143.295 156.794 C 143.793 156.791,144.470 156.608,144.800 156.388 C 145.455 155.951,154.212 156.092,156.200 156.571 " stroke="none" fill="#f8f2fa" fill-rule="evenodd"></path><path id="path3" d="M310.200 82.385 C 306.481 84.077,306.399 84.524,306.406 103.028 C 306.413 119.953,306.504 120.771,308.627 122.894 C 309.236 123.502,310.027 124.000,310.387 124.000 C 310.746 124.000,311.251 124.211,311.508 124.468 C 312.726 125.686,316.758 123.287,317.778 120.739 C 318.660 118.534,318.710 87.638,317.835 85.549 C 316.448 82.238,313.347 80.953,310.200 82.385 M310.884 156.973 C 305.286 159.005,305.462 166.328,311.150 168.032 C 316.648 169.680,320.685 161.933,316.291 158.165 C 315.504 157.490,312.833 156.319,312.372 156.448 C 312.277 156.474,311.608 156.710,310.884 156.973 M148.000 169.299 C 144.632 169.932,140.000 173.025,140.000 174.640 C 140.000 174.948,139.820 175.200,139.600 175.200 C 139.380 175.200,139.200 175.524,139.200 175.920 C 139.200 176.316,138.981 176.859,138.714 177.126 C 137.812 178.028,138.122 184.310,139.178 186.508 C 143.207 194.889,154.990 195.603,160.136 187.778 C 165.836 179.111,158.139 167.392,148.000 169.299 M250.378 231.742 C 250.256 231.871,248.186 232.160,245.778 232.383 C 241.526 232.778,237.432 233.342,235.800 233.758 C 235.360 233.870,233.740 234.258,232.200 234.620 C 228.516 235.485,221.901 237.584,221.420 238.040 C 221.211 238.238,220.795 238.400,220.495 238.400 C 219.410 238.400,208.369 243.819,208.067 244.500 C 207.993 244.665,207.760 244.800,207.549 244.800 C 206.718 244.800,196.300 252.259,193.291 255.009 L 192.381 255.839 193.394 256.720 C 193.951 257.204,194.540 257.600,194.703 257.600 C 194.866 257.601,195.540 258.066,196.200 258.634 C 198.778 260.854,214.294 269.404,219.100 271.254 C 220.844 271.925,222.207 272.497,222.895 272.847 C 223.277 273.041,223.952 273.200,224.395 273.200 C 224.838 273.200,225.200 273.380,225.200 273.600 C 225.200 273.820,225.639 274.000,226.176 274.000 C 226.713 274.000,227.264 274.180,227.400 274.400 C 227.536 274.620,228.076 274.800,228.600 274.800 C 229.124 274.800,229.664 274.980,229.800 275.200 C 229.936 275.420,230.566 275.600,231.200 275.600 C 231.834 275.600,232.464 275.780,232.600 276.000 C 232.736 276.220,233.366 276.400,234.000 276.400 C 234.634 276.400,235.252 276.561,235.374 276.758 C 235.495 276.955,236.271 277.213,237.097 277.332 C 237.924 277.451,239.410 277.723,240.400 277.937 C 251.730 280.385,253.488 280.488,287.305 280.682 L 318.411 280.860 318.305 267.342 C 318.204 254.282,318.173 253.809,317.400 253.412 C 316.960 253.185,315.610 252.432,314.400 251.739 C 313.190 251.045,311.525 250.100,310.700 249.639 C 309.875 249.177,308.595 248.457,307.855 248.038 C 307.115 247.618,306.080 247.033,305.555 246.738 C 305.030 246.442,304.510 246.110,304.400 245.999 C 304.290 245.889,303.660 245.529,303.000 245.200 C 302.340 244.871,301.710 244.511,301.600 244.401 C 301.165 243.964,295.198 240.907,292.700 239.840 C 291.875 239.488,290.615 238.945,289.900 238.633 C 285.173 236.573,275.924 234.006,269.600 232.999 C 264.532 232.192,250.801 231.294,250.378 231.742 " stroke="none" fill="#bdd361" fill-rule="evenodd"></path><path id="path4" d="M304.200 56.800 C 302.725 57.064,302.788 57.088,305.000 57.103 C 306.320 57.113,307.850 56.976,308.400 56.800 C 309.710 56.380,306.544 56.380,304.200 56.800 M316.600 56.823 C 317.480 57.005,319.100 57.144,320.200 57.131 L 322.200 57.108 320.600 56.777 C 319.720 56.595,318.100 56.456,317.000 56.469 L 315.000 56.492 316.600 56.823 M299.200 57.600 C 298.220 57.914,298.224 57.921,299.400 57.954 C 300.060 57.973,300.870 57.813,301.200 57.600 C 301.958 57.110,300.730 57.110,299.200 57.600 M324.000 57.579 C 324.330 57.804,325.125 57.991,325.767 57.994 C 327.304 58.002,326.984 57.770,325.000 57.438 C 323.854 57.246,323.570 57.286,324.000 57.579 M295.600 58.400 L 294.600 58.720 295.600 58.754 C 296.150 58.773,296.870 58.613,297.200 58.400 C 297.964 57.906,297.142 57.906,295.600 58.400 M327.800 58.400 C 327.936 58.620,328.532 58.787,329.124 58.772 C 330.085 58.747,330.114 58.707,329.400 58.400 C 328.289 57.922,327.505 57.922,327.800 58.400 M292.600 59.200 L 291.800 59.544 292.600 59.566 C 293.040 59.578,293.670 59.413,294.000 59.200 C 294.795 58.686,293.796 58.686,292.600 59.200 M330.800 59.200 C 331.130 59.413,331.760 59.578,332.200 59.566 L 333.000 59.544 332.200 59.200 C 331.004 58.686,330.005 58.686,330.800 59.200 M290.200 60.000 C 289.429 60.331,289.431 60.345,290.276 60.372 C 290.758 60.387,291.264 60.220,291.400 60.000 C 291.692 59.527,291.301 59.527,290.200 60.000 M287.600 60.887 C 264.054 71.069,249.631 88.654,244.854 113.000 C 244.301 115.821,243.837 121.857,244.200 121.515 C 244.366 121.359,244.650 119.649,244.830 117.715 C 245.010 115.782,245.340 113.300,245.564 112.200 C 245.787 111.100,246.079 109.570,246.212 108.800 C 246.345 108.030,246.602 107.040,246.782 106.600 C 246.962 106.160,247.341 104.990,247.624 104.000 C 247.907 103.010,248.288 102.029,248.470 101.820 C 248.651 101.611,248.800 101.134,248.800 100.760 C 248.800 99.855,254.616 88.349,255.615 87.276 C 256.047 86.812,256.400 86.291,256.400 86.117 C 256.401 85.943,256.806 85.321,257.300 84.736 C 257.795 84.151,258.830 82.894,259.600 81.942 C 266.777 73.075,278.523 64.400,287.120 61.616 C 288.066 61.309,288.932 60.911,289.044 60.729 C 289.309 60.300,288.838 60.351,287.600 60.887 M335.800 60.800 C 335.936 61.020,336.309 61.200,336.629 61.200 C 336.949 61.200,337.523 61.360,337.905 61.556 C 338.287 61.752,340.531 62.850,342.892 63.997 C 345.253 65.143,348.918 67.249,351.038 68.676 C 353.157 70.103,354.767 71.070,354.616 70.826 C 354.340 70.380,347.404 65.600,347.033 65.600 C 346.924 65.600,345.972 65.093,344.918 64.474 C 341.435 62.430,335.273 59.947,335.800 60.800 M306.639 69.255 C 302.752 70.569,295.985 76.002,296.004 77.793 C 296.007 78.017,296.490 77.570,297.079 76.800 C 306.760 64.129,325.460 67.048,330.367 81.996 C 331.456 85.311,331.663 119.384,330.619 123.391 C 329.283 128.520,325.433 133.276,320.800 135.520 C 319.370 136.213,318.431 136.784,318.713 136.790 C 322.225 136.860,328.961 129.906,330.795 124.319 C 331.756 121.392,332.055 85.680,331.143 82.828 C 327.638 71.874,316.743 65.840,306.639 69.255 M355.224 71.463 C 355.237 71.648,356.414 72.771,357.840 73.958 C 361.945 77.376,369.840 86.804,370.599 89.197 C 370.739 89.639,371.032 90.000,371.251 90.000 C 371.705 90.000,371.627 89.852,369.464 86.600 C 365.872 81.199,355.104 69.753,355.224 71.463 M293.867 82.667 C 293.720 82.813,293.618 83.578,293.640 84.367 L 293.680 85.800 294.046 84.240 C 294.415 82.668,294.359 82.175,293.867 82.667 M371.667 90.701 C 372.762 93.173,375.324 98.009,375.465 97.869 C 375.686 97.647,372.093 90.400,371.763 90.400 C 371.637 90.400,371.593 90.535,371.667 90.701 M376.412 100.800 C 376.412 101.130,376.587 101.670,376.800 102.000 C 377.145 102.533,377.188 102.533,377.188 102.000 C 377.188 101.670,377.013 101.130,376.800 100.800 C 376.455 100.267,376.412 100.267,376.412 100.800 M378.028 105.676 C 378.013 106.268,378.180 106.864,378.400 107.000 C 378.878 107.295,378.878 106.511,378.400 105.400 C 378.093 104.686,378.053 104.715,378.028 105.676 M378.834 108.600 C 378.822 109.040,378.987 109.670,379.200 110.000 C 379.714 110.795,379.714 109.796,379.200 108.600 L 378.856 107.800 378.834 108.600 M379.680 112.400 C 379.680 112.950,379.824 113.850,380.000 114.400 L 380.320 115.400 380.320 114.400 C 380.320 113.850,380.176 112.950,380.000 112.400 L 379.680 111.400 379.680 112.400 M380.600 125.000 C 380.600 129.794,380.725 133.015,380.877 132.158 C 381.236 130.139,381.236 119.861,380.877 117.842 C 380.725 116.985,380.600 120.206,380.600 125.000 M33.896 119.406 C 26.418 121.040,20.811 126.859,19.354 134.498 C 18.644 138.221,18.517 324.385,19.222 327.523 C 19.990 330.941,20.541 332.588,21.275 333.662 C 21.674 334.246,22.000 334.881,22.000 335.073 C 22.000 337.146,29.726 342.197,34.400 343.178 C 37.352 343.798,326.979 343.575,329.421 342.951 C 335.731 341.337,341.346 335.722,342.949 329.421 C 343.221 328.352,343.403 306.124,343.484 264.136 L 343.607 200.473 342.704 200.694 C 342.207 200.816,341.620 201.036,341.400 201.183 C 341.180 201.331,339.650 201.864,338.000 202.369 C 336.350 202.874,334.587 203.448,334.081 203.644 C 333.576 203.840,332.811 204.000,332.381 204.000 C 331.610 204.000,331.600 204.756,331.600 264.974 C 331.600 307.082,331.468 326.296,331.175 327.074 C 330.596 328.606,328.869 330.383,327.313 331.049 C 325.583 331.789,37.765 331.883,35.560 331.145 C 33.945 330.604,32.536 329.408,31.762 327.920 C 30.729 325.934,30.945 135.823,31.982 134.122 C 33.810 131.125,23.478 131.423,132.982 131.200 L 231.000 131.000 231.000 125.000 L 231.000 119.000 133.600 118.952 C 56.689 118.913,35.715 119.009,33.896 119.406 M293.606 121.833 C 293.609 122.475,293.796 123.270,294.021 123.600 C 294.314 124.030,294.354 123.746,294.162 122.600 C 293.830 120.616,293.598 120.296,293.606 121.833 M294.418 124.681 C 294.362 126.167,297.711 131.374,299.867 133.151 C 302.133 135.019,301.851 134.424,299.158 131.655 C 297.678 130.132,296.285 128.194,295.585 126.680 C 294.953 125.316,294.428 124.417,294.418 124.681 M244.079 129.600 C 244.079 130.590,244.216 132.390,244.383 133.600 L 244.687 135.800 244.704 132.800 C 244.713 131.150,244.576 129.350,244.400 128.800 C 244.139 127.985,244.080 128.133,244.079 129.600 M302.165 134.743 C 302.435 135.179,306.026 136.907,306.233 136.701 C 306.312 136.621,305.379 136.066,304.159 135.467 C 302.938 134.869,302.041 134.543,302.165 134.743 M379.800 136.400 C 379.646 137.310,379.611 138.144,379.721 138.254 C 379.831 138.364,380.046 137.710,380.200 136.800 C 380.354 135.890,380.389 135.056,380.279 134.946 C 380.169 134.836,379.954 135.490,379.800 136.400 M245.018 137.600 C 245.254 139.198,245.526 140.331,246.796 145.000 C 250.729 159.465,262.534 174.887,275.998 183.151 C 282.727 187.282,295.748 192.658,294.626 190.843 C 294.476 190.599,293.834 190.400,293.200 190.400 C 292.566 190.400,291.936 190.220,291.800 190.000 C 291.664 189.780,291.201 189.600,290.771 189.600 C 290.341 189.600,289.677 189.441,289.295 189.247 C 288.913 189.052,288.150 188.714,287.600 188.495 C 279.171 185.134,270.641 179.549,264.597 173.435 C 260.724 169.517,256.400 164.438,256.400 163.807 C 256.400 163.674,256.217 163.349,255.994 163.083 C 254.282 161.044,248.800 150.410,248.800 149.128 C 248.800 148.815,248.651 148.389,248.470 148.180 C 248.163 147.828,247.590 146.072,246.746 142.900 C 246.556 142.185,246.220 141.002,246.000 140.272 C 245.780 139.541,245.597 138.506,245.594 137.972 C 245.591 137.437,245.400 136.730,245.170 136.400 C 244.868 135.965,244.826 136.296,245.018 137.600 M307.400 137.200 C 307.840 137.389,308.650 137.538,309.200 137.532 L 310.200 137.520 309.200 137.200 C 308.650 137.024,307.840 136.874,307.400 136.868 L 306.600 136.856 307.400 137.200 M315.600 137.200 C 314.620 137.514,314.624 137.521,315.800 137.554 C 316.460 137.573,317.270 137.413,317.600 137.200 C 318.358 136.710,317.130 136.710,315.600 137.200 M379.073 140.153 C 378.923 140.545,378.811 141.166,378.825 141.533 C 378.842 141.975,378.981 141.874,379.237 141.234 C 379.449 140.703,379.561 140.082,379.485 139.854 C 379.409 139.627,379.224 139.761,379.073 140.153 M378.200 143.600 C 378.050 144.073,378.017 144.550,378.127 144.660 C 378.237 144.770,378.450 144.473,378.600 144.000 C 378.750 143.527,378.783 143.050,378.673 142.940 C 378.563 142.830,378.350 143.127,378.200 143.600 M43.867 143.866 C 43.479 144.254,43.538 252.715,43.927 252.955 C 44.107 253.066,46.582 250.811,49.427 247.943 C 58.118 239.184,65.501 233.546,74.535 228.773 C 76.991 227.475,78.850 226.410,78.666 226.407 C 77.187 226.377,62.958 234.974,60.000 237.684 C 59.450 238.188,58.280 239.137,57.400 239.794 C 56.520 240.451,53.145 243.608,49.900 246.811 L 44.000 252.633 44.000 198.317 L 44.000 144.000 138.547 144.000 L 233.095 144.000 233.791 146.500 C 234.651 149.588,235.519 152.313,236.020 153.500 C 236.229 153.995,236.562 154.805,236.759 155.300 C 237.611 157.434,238.450 159.200,238.613 159.200 C 238.709 159.200,238.405 158.255,237.937 157.100 C 237.194 155.268,235.579 150.643,233.853 145.400 L 233.326 143.800 138.730 143.699 C 86.703 143.644,44.015 143.719,43.867 143.866 M307.794 144.009 C 307.627 144.279,308.131 144.328,309.271 144.154 C 311.556 143.803,311.710 143.600,309.690 143.600 C 308.787 143.600,307.933 143.784,307.794 144.009 M314.433 143.747 C 314.900 144.158,317.657 144.416,317.416 144.026 C 317.271 143.791,316.503 143.600,315.710 143.600 C 314.916 143.600,314.342 143.666,314.433 143.747 M302.800 146.052 C 299.412 148.107,295.200 152.802,295.200 154.524 C 295.200 154.744,295.896 153.861,296.747 152.562 C 298.550 149.810,300.226 148.164,302.978 146.439 C 304.066 145.758,304.786 145.201,304.578 145.201 C 304.370 145.202,303.570 145.585,302.800 146.052 M377.467 145.867 C 377.320 146.013,377.211 146.508,377.225 146.967 C 377.249 147.733,377.282 147.723,377.634 146.842 C 378.026 145.863,377.944 145.389,377.467 145.867 M323.200 147.079 C 336.143 156.968,332.570 176.512,317.065 180.641 C 309.359 182.692,299.386 178.457,296.222 171.789 C 295.842 170.990,295.435 170.432,295.317 170.549 C 293.716 172.151,302.115 179.379,307.628 181.143 C 309.389 181.706,316.660 181.750,317.000 181.200 C 317.136 180.980,317.676 180.800,318.200 180.800 C 318.724 180.800,319.264 180.620,319.400 180.400 C 319.536 180.180,319.997 180.000,320.424 180.000 C 320.851 180.000,321.200 179.864,321.200 179.698 C 321.200 179.531,321.785 179.138,322.500 178.824 C 329.121 175.912,333.347 164.652,330.768 156.796 C 329.452 152.790,324.054 145.984,322.207 146.004 C 321.983 146.007,322.430 146.490,323.200 147.079 M373.757 155.079 C 369.187 164.379,362.466 172.594,354.172 179.017 C 351.930 180.753,346.895 184.000,346.446 184.000 C 346.237 184.000,346.007 184.137,345.933 184.304 C 345.739 184.747,338.464 188.253,336.243 188.973 C 335.826 189.108,335.584 189.317,335.704 189.437 C 337.320 191.053,353.744 180.635,360.991 173.397 C 367.090 167.306,376.642 153.309,375.487 152.154 C 375.379 152.046,374.600 153.362,373.757 155.079 M144.939 156.306 C 144.686 156.468,146.964 156.600,150.001 156.600 C 153.039 156.600,155.317 156.468,155.062 156.306 C 154.808 156.144,152.530 156.012,150.000 156.012 C 147.470 156.012,145.193 156.144,144.939 156.306 M141.790 157.216 C 141.621 157.489,141.923 157.538,142.666 157.360 C 144.199 156.992,144.344 156.800,143.090 156.800 C 142.517 156.800,141.932 156.987,141.790 157.216 M156.033 156.944 C 156.505 157.350,158.443 157.593,158.210 157.216 C 158.068 156.987,157.483 156.800,156.910 156.800 C 156.336 156.800,155.942 156.865,156.033 156.944 M293.867 157.467 C 293.720 157.613,293.618 158.378,293.640 159.167 L 293.680 160.600 294.046 159.040 C 294.415 157.468,294.359 156.975,293.867 157.467 M161.459 159.139 C 165.148 161.097,167.809 163.346,170.003 166.359 C 172.013 169.119,172.708 169.373,170.846 166.666 C 168.445 163.177,161.126 157.561,159.044 157.611 C 158.800 157.616,159.886 158.304,161.459 159.139 M137.019 159.335 C 134.093 160.936,127.386 167.920,128.095 168.628 C 128.189 168.723,128.968 167.783,129.824 166.539 C 131.517 164.081,135.135 160.858,137.628 159.586 C 138.493 159.145,139.200 158.697,139.200 158.592 C 139.200 158.257,138.644 158.447,137.019 159.335 M238.800 159.854 C 238.800 160.496,239.778 162.394,240.110 162.397 C 240.281 162.399,240.123 161.815,239.759 161.100 C 238.979 159.565,238.800 159.333,238.800 159.854 M240.400 162.900 C 240.400 163.053,240.858 163.948,241.418 164.889 C 241.977 165.830,242.538 166.915,242.664 167.300 C 242.790 167.685,243.060 168.000,243.264 168.000 C 243.467 168.000,243.143 167.145,242.544 166.100 C 241.143 163.659,240.400 162.550,240.400 162.900 M293.653 165.600 C 293.631 166.370,293.787 167.270,294.000 167.600 C 294.477 168.339,294.477 167.276,294.000 165.400 L 293.695 164.200 293.653 165.600 M243.621 168.528 C 243.602 168.829,245.499 171.750,246.650 173.191 C 250.334 177.803,251.774 179.473,254.357 182.129 C 256.031 183.851,258.120 185.826,259.000 186.520 C 259.880 187.214,258.440 185.625,255.800 182.991 C 251.764 178.964,247.385 173.701,244.321 169.198 C 243.948 168.649,243.633 168.348,243.621 168.528 M125.867 173.067 C 125.720 173.213,125.611 173.708,125.625 174.167 C 125.649 174.933,125.682 174.923,126.034 174.042 C 126.426 173.063,126.344 172.589,125.867 173.067 M173.628 173.076 C 173.718 174.115,174.344 174.996,174.372 174.124 C 174.387 173.642,174.220 173.136,174.000 173.000 C 173.780 172.864,173.613 172.898,173.628 173.076 M125.067 175.867 C 124.920 176.013,124.824 177.138,124.852 178.367 L 124.905 180.600 125.213 178.200 C 125.533 175.710,125.515 175.419,125.067 175.867 M174.600 181.200 C 174.600 184.238,174.735 186.640,174.900 186.538 C 175.065 186.436,175.200 184.034,175.200 181.200 C 175.200 178.366,175.065 175.964,174.900 175.862 C 174.735 175.760,174.600 178.162,174.600 181.200 M124.800 183.910 C 124.800 185.253,124.963 186.453,125.162 186.577 C 125.496 186.783,125.288 182.024,124.946 181.633 C 124.866 181.542,124.800 182.566,124.800 183.910 M125.628 188.276 C 125.613 188.758,125.780 189.264,126.000 189.400 C 126.473 189.692,126.473 189.301,126.000 188.200 C 125.669 187.429,125.655 187.431,125.628 188.276 M174.046 187.867 C 174.021 188.124,173.884 188.664,173.741 189.067 C 173.540 189.636,173.594 189.697,173.979 189.342 C 174.252 189.091,174.389 188.551,174.284 188.142 C 174.179 187.734,174.072 187.610,174.046 187.867 M260.800 187.829 C 260.800 188.163,261.615 188.898,263.200 189.994 C 263.970 190.526,264.725 191.145,264.878 191.369 C 265.031 191.593,265.257 191.676,265.380 191.554 C 265.502 191.431,264.522 190.491,263.201 189.466 C 261.881 188.440,260.800 187.704,260.800 187.829 M333.400 190.000 C 333.108 190.473,333.499 190.473,334.600 190.000 C 335.371 189.669,335.369 189.655,334.524 189.628 C 334.042 189.613,333.536 189.780,333.400 190.000 M330.600 190.800 C 330.305 191.278,331.089 191.278,332.200 190.800 C 332.914 190.493,332.885 190.453,331.924 190.428 C 331.332 190.413,330.736 190.580,330.600 190.800 M295.800 191.600 C 296.911 192.078,297.695 192.078,297.400 191.600 C 297.264 191.380,296.668 191.213,296.076 191.228 C 295.115 191.253,295.086 191.293,295.800 191.600 M327.400 191.600 C 327.116 192.060,327.764 192.060,329.200 191.600 C 330.155 191.294,330.143 191.278,328.924 191.240 C 328.222 191.218,327.536 191.380,327.400 191.600 M266.000 191.895 C 266.000 192.284,267.614 193.319,267.851 193.082 C 267.947 192.986,267.569 192.610,267.012 192.245 C 266.456 191.880,266.000 191.722,266.000 191.895 M299.400 192.400 C 301.276 192.877,302.339 192.877,301.600 192.400 C 301.270 192.187,300.370 192.031,299.600 192.053 L 298.200 192.095 299.400 192.400 M323.400 192.400 C 323.121 192.852,324.025 192.852,325.800 192.400 C 326.933 192.112,326.907 192.092,325.324 192.047 C 324.402 192.021,323.536 192.180,323.400 192.400 M304.800 193.220 C 305.790 193.397,307.770 193.530,309.200 193.517 L 311.800 193.493 309.800 193.182 C 308.700 193.010,306.720 192.877,305.400 192.885 L 303.000 192.900 304.800 193.220 M315.400 193.200 C 313.917 193.466,313.975 193.488,316.200 193.514 C 317.520 193.529,319.410 193.397,320.400 193.220 C 322.149 192.909,322.126 192.900,319.600 192.907 C 318.170 192.911,316.280 193.042,315.400 193.200 M268.400 193.576 C 268.400 193.809,268.655 194.000,268.967 194.000 C 269.278 194.000,269.593 194.135,269.667 194.300 C 270.279 195.677,287.931 203.556,289.347 203.084 C 289.576 203.008,288.782 202.634,287.582 202.254 C 282.325 200.588,273.565 196.593,270.400 194.418 C 268.738 193.276,268.400 193.134,268.400 193.576 M128.000 193.828 C 128.000 195.994,138.216 204.844,140.656 204.793 C 140.845 204.789,140.100 204.289,139.000 203.682 C 134.388 201.136,131.293 198.410,129.257 195.100 C 128.392 193.692,128.000 193.296,128.000 193.828 M170.756 195.079 C 169.180 197.640,166.741 200.039,163.649 202.065 C 160.420 204.182,160.233 204.757,163.422 202.763 C 166.707 200.708,172.584 194.450,171.884 193.751 C 171.778 193.645,171.270 194.242,170.756 195.079 M290.800 203.600 C 291.130 203.813,291.670 203.988,292.000 203.988 C 292.533 203.988,292.533 203.945,292.000 203.600 C 291.670 203.387,291.130 203.212,290.800 203.212 C 290.267 203.212,290.267 203.255,290.800 203.600 M293.600 204.400 C 293.930 204.613,294.650 204.778,295.200 204.766 C 296.116 204.746,296.133 204.715,295.400 204.400 C 294.216 203.891,292.813 203.891,293.600 204.400 M141.600 205.200 C 141.930 205.413,142.470 205.588,142.800 205.588 C 143.333 205.588,143.333 205.545,142.800 205.200 C 142.470 204.987,141.930 204.812,141.600 204.812 C 141.067 204.812,141.067 204.855,141.600 205.200 M157.200 205.200 C 156.667 205.545,156.667 205.588,157.200 205.588 C 157.530 205.588,158.070 205.413,158.400 205.200 C 158.933 204.855,158.933 204.812,158.400 204.812 C 158.070 204.812,157.530 204.987,157.200 205.200 M297.400 205.200 C 297.840 205.389,298.740 205.538,299.400 205.532 C 300.570 205.521,300.575 205.512,299.600 205.200 C 298.133 204.730,296.306 204.730,297.400 205.200 M144.400 205.977 C 144.939 206.346,148.368 206.610,147.967 206.251 C 147.875 206.169,146.900 205.982,145.800 205.835 C 144.380 205.645,143.974 205.686,144.400 205.977 M153.200 206.000 L 151.800 206.295 153.400 206.341 C 154.280 206.367,155.270 206.213,155.600 206.000 C 156.324 205.532,155.423 205.532,153.200 206.000 M302.600 205.991 C 303.350 206.322,309.128 206.569,308.767 206.255 C 308.675 206.175,307.070 206.004,305.200 205.874 C 303.102 205.728,302.106 205.773,302.600 205.991 M316.797 206.284 L 318.400 206.446 318.400 222.410 C 318.400 237.274,318.353 238.357,317.720 238.114 C 317.346 237.970,315.949 237.190,314.616 236.381 C 311.429 234.445,304.889 230.964,305.400 231.475 C 306.010 232.086,317.920 238.800,318.394 238.800 C 318.676 238.800,318.775 233.568,318.704 222.500 L 318.600 206.200 316.897 206.161 L 315.194 206.122 316.797 206.284 M107.176 218.557 C 107.055 218.679,105.526 218.963,103.778 219.190 C 102.030 219.417,99.610 219.792,98.400 220.022 C 97.190 220.252,95.524 220.541,94.697 220.663 C 93.871 220.785,93.095 221.045,92.974 221.242 C 92.852 221.439,92.234 221.600,91.600 221.600 C 90.966 221.600,90.332 221.787,90.190 222.016 C 89.930 222.437,91.116 222.280,93.200 221.617 C 95.397 220.919,100.624 219.972,106.516 219.205 C 108.230 218.982,112.280 218.802,115.516 218.804 C 122.343 218.808,127.917 219.438,136.400 221.164 C 137.390 221.366,138.271 221.460,138.357 221.375 C 138.550 221.183,137.787 220.927,136.200 220.650 C 135.540 220.535,134.010 220.239,132.800 219.993 C 131.590 219.747,129.430 219.364,128.000 219.143 C 125.141 218.699,107.529 218.204,107.176 218.557 M243.000 218.879 C 239.230 219.362,232.649 220.561,230.200 221.210 C 229.540 221.385,228.484 221.643,227.853 221.784 C 227.222 221.924,226.790 222.123,226.893 222.226 C 226.996 222.329,228.673 222.035,230.620 221.573 C 245.453 218.050,262.941 217.904,277.353 221.183 C 278.427 221.427,279.394 221.540,279.500 221.433 C 279.732 221.201,277.671 220.734,271.600 219.643 C 264.709 218.405,249.807 218.007,243.000 218.879 M142.182 222.800 C 144.153 223.442,145.844 223.890,145.940 223.794 C 146.036 223.697,145.864 223.538,145.557 223.438 C 145.251 223.339,143.908 222.885,142.573 222.429 C 141.239 221.973,139.799 221.607,139.373 221.615 C 138.948 221.624,140.212 222.157,142.182 222.800 M281.800 222.197 C 282.900 222.528,284.340 222.963,285.000 223.165 C 287.936 224.060,288.101 224.088,287.826 223.643 C 287.676 223.399,287.124 223.200,286.600 223.200 C 286.076 223.200,285.548 223.040,285.427 222.844 C 285.306 222.649,284.621 222.387,283.904 222.263 C 280.187 221.621,279.853 221.611,281.800 222.197 M87.400 222.794 C 86.960 222.980,86.259 223.242,85.843 223.376 C 85.426 223.510,85.171 223.704,85.275 223.808 C 85.379 223.912,86.440 223.651,87.632 223.228 C 88.824 222.805,89.440 222.457,89.000 222.456 C 88.560 222.455,87.840 222.607,87.400 222.794 M224.200 222.800 C 224.064 223.020,223.524 223.200,223.000 223.200 C 222.476 223.200,221.932 223.387,221.790 223.616 C 221.506 224.076,222.859 223.818,225.200 222.966 C 226.520 222.486,226.538 222.455,225.524 222.428 C 224.932 222.413,224.336 222.580,224.200 222.800 M146.400 224.076 C 146.888 224.549,150.000 225.558,150.000 225.243 C 150.000 225.051,149.595 224.797,149.100 224.679 C 148.605 224.561,147.750 224.333,147.200 224.173 C 146.650 224.013,146.290 223.969,146.400 224.076 M219.400 224.400 C 219.108 224.873,219.499 224.873,220.600 224.400 C 221.371 224.069,221.369 224.055,220.524 224.028 C 220.042 224.013,219.536 224.180,219.400 224.400 M289.000 224.400 C 290.101 224.873,290.492 224.873,290.200 224.400 C 290.064 224.180,289.558 224.013,289.076 224.028 C 288.231 224.055,288.229 224.069,289.000 224.400 M294.360 226.416 C 295.327 226.855,296.194 227.140,296.284 227.049 C 296.530 226.804,293.980 225.599,293.239 225.609 C 292.887 225.614,293.392 225.977,294.360 226.416 M156.665 228.773 C 165.043 233.200,170.512 237.178,178.543 244.688 C 181.245 247.215,181.778 247.557,182.343 247.124 C 184.072 245.800,189.200 241.456,189.200 241.315 C 189.200 241.036,187.082 242.672,183.264 245.900 C 181.782 247.152,181.743 247.137,178.394 243.955 C 173.061 238.887,165.349 233.031,160.400 230.290 C 156.073 227.894,153.100 226.400,152.667 226.407 C 152.410 226.410,154.209 227.475,156.665 228.773 M204.800 230.852 C 200.423 233.203,192.807 238.057,192.803 238.499 C 192.801 238.664,193.655 238.189,194.700 237.444 C 197.207 235.657,204.010 231.631,206.900 230.225 C 209.065 229.172,209.599 228.793,208.900 228.806 C 208.735 228.809,206.890 229.730,204.800 230.852 M300.400 228.964 C 300.400 229.235,304.527 231.206,304.710 231.023 C 304.803 230.930,303.968 230.392,302.853 229.827 C 300.836 228.805,300.400 228.651,300.400 228.964 M190.901 239.700 C 190.193 240.195,189.611 240.744,189.607 240.920 C 189.603 241.097,190.230 240.760,191.000 240.173 C 192.234 239.232,192.641 238.800,192.294 238.800 C 192.236 238.800,191.609 239.205,190.901 239.700 " stroke="none" fill="#b4b4a4" fill-rule="evenodd"></path></g></svg>